<svg width="17" height="13" viewBox="0 0 17 13" fill="none" xmlns="http://www.w3.org/2000/svg">
<path d="M5.19256 10.1924L1.69256 6.69237C1.60104 6.59973 1.49204 6.52618 1.37188 6.47598C1.25172 6.42578 1.12279 6.39993 0.992564 6.39993C0.862339 6.39993 0.733408 6.42578 0.613248 6.47598C0.493087 6.52618 0.384086 6.59973 0.292563 6.69237C0.199924 6.78389 0.126372 6.89289 0.0761726 7.01305C0.025973 7.13321 0.000123978 7.26214 0.000123978 7.39237C0.000123978 7.52259 0.025973 7.65152 0.0761726 7.77168C0.126372 7.89184 0.199924 8.00085 0.292563 8.09237L4.48256 12.2824C4.87256 12.6724 5.50256 12.6724 5.89256 12.2824L16.4926 1.69237C16.5852 1.60084 16.6588 1.49184 16.709 1.37168C16.7592 1.25152 16.785 1.12259 16.785 0.992368C16.785 0.862143 16.7592 0.733213 16.709 0.613052C16.6588 0.492892 16.5852 0.383891 16.4926 0.292368C16.401 0.199728 16.292 0.126176 16.1719 0.0759768C16.0517 0.0257773 15.9228 -7.15256e-05 15.7926 -7.15256e-05C15.6623 -7.15256e-05 15.5334 0.0257773 15.4132 0.0759768C15.2931 0.126176 15.1841 0.199728 15.0926 0.292368L5.19256 10.1924Z" fill="#03A814"/>
</svg>
