<svg width="19" height="19" viewBox="0 0 19 19" fill="none" xmlns="http://www.w3.org/2000/svg">
<path fill-rule="evenodd" clip-rule="evenodd" d="M13.5792 11.9497H12.721L12.4168 11.6564C13.4814 10.418 14.1224 8.81018 14.1224 7.06118C14.1224 3.16124 10.9611 0 7.06118 0C3.16124 0 0 3.16124 0 7.06118C0 10.9611 3.16124 14.1224 7.06118 14.1224C8.81018 14.1224 10.418 13.4814 11.6564 12.4168L11.9497 12.721V13.5792L17.3814 19L19 17.3814L13.5792 11.9497ZM7.06124 11.95C4.35627 11.95 2.17274 9.76642 2.17274 7.06144C2.17274 4.35647 4.35627 2.17294 7.06124 2.17294C9.76622 2.17294 11.9498 4.35647 11.9498 7.06144C11.9498 9.76642 9.76622 11.95 7.06124 11.95Z" fill="white"/>
</svg>
