<svg width="27" height="25" viewBox="0 0 27 25" fill="none" xmlns="http://www.w3.org/2000/svg">
<path d="M25.6879 11.5166L20.4901 15.937L22.0472 22.5181C22.1296 22.8622 22.106 23.2223 21.9796 23.5533C21.8531 23.8844 21.6293 24.1719 21.3361 24.3797C21.0429 24.5875 20.6933 24.7065 20.3311 24.7217C19.9689 24.737 19.6101 24.6479 19.2996 24.4655L13.4092 20.984L7.53143 24.4655C7.22091 24.6479 6.86212 24.737 6.49991 24.7217C6.1377 24.7065 5.78815 24.5875 5.49495 24.3797C5.20176 24.1719 4.97793 23.8844 4.85146 23.5533C4.72498 23.2223 4.70147 22.8622 4.78387 22.5181L6.33859 15.9437L1.13966 11.5166C0.864687 11.2855 0.66585 10.9804 0.568088 10.6396C0.470325 10.2989 0.477989 9.93753 0.590119 9.60098C0.702248 9.26442 0.913851 8.96762 1.19839 8.74779C1.48293 8.52796 1.82775 8.39489 2.18959 8.36526L9.04235 7.78688L11.7173 1.56959C11.857 1.24336 12.0926 0.964692 12.3945 0.768684C12.6964 0.572675 13.051 0.468086 13.4138 0.468086C13.7765 0.468086 14.1312 0.572675 14.4331 0.768684C14.735 0.964692 14.9706 1.24336 15.1103 1.56959L17.7933 7.78688L24.6437 8.36526C25.0056 8.39489 25.3504 8.52796 25.6349 8.74779C25.9195 8.96762 26.1311 9.26442 26.2432 9.60098C26.3553 9.93753 26.363 10.2989 26.2652 10.6396C26.1675 10.9804 25.9686 11.2855 25.6937 11.5166H25.6879Z" fill="#E3E3E3"/>
</svg>
