<svg width="26" height="25" viewBox="0 0 26 25" fill="none" xmlns="http://www.w3.org/2000/svg">
<path d="M25.1879 11.0485L19.9901 15.4689L21.5472 22.05C21.6296 22.3941 21.606 22.7542 21.4796 23.0853C21.3531 23.4164 21.1293 23.7038 20.8361 23.9116C20.5429 24.1194 20.1933 24.2384 19.8311 24.2536C19.4689 24.2689 19.1101 24.1798 18.7996 23.9974L12.9092 20.5159L7.03143 23.9974C6.72091 24.1798 6.36212 24.2689 5.99991 24.2536C5.6377 24.2384 5.28815 24.1194 4.99495 23.9116C4.70176 23.7038 4.47793 23.4164 4.35146 23.0853C4.22498 22.7542 4.20147 22.3941 4.28387 22.05L5.83859 15.4756L0.639663 11.0485C0.364687 10.8174 0.16585 10.5123 0.0680876 10.1715C-0.0296747 9.83077 -0.0220106 9.46944 0.0901188 9.13289C0.202248 8.79634 0.413851 8.49954 0.698392 8.27971C0.982934 8.05988 1.32775 7.9268 1.68959 7.89717L8.54235 7.31879L11.2173 1.1015C11.357 0.775271 11.5926 0.496606 11.8945 0.300598C12.1964 0.104589 12.551 0 12.9138 0C13.2765 0 13.6312 0.104589 13.9331 0.300598C14.235 0.496606 14.4706 0.775271 14.6103 1.1015L17.2933 7.31879L24.1437 7.89717C24.5056 7.9268 24.8504 8.05988 25.1349 8.27971C25.4195 8.49954 25.6311 8.79634 25.7432 9.13289C25.8553 9.46944 25.863 9.83077 25.7652 10.1715C25.6675 10.5123 25.4686 10.8174 25.1937 11.0485H25.1879Z" fill="#FFD700"/>
</svg>
